<svg height="512pt" viewBox="-29 0 512 512" width="512pt" xmlns="http://www.w3.org/2000/svg"><path d="m355.777344 0h-128.554688l-20.015625 237.546875 20.015625 274.453125c136.710938-51.46875 227.222656-181.195312 227.222656-327.273438v-86.054687zm0 0" fill="#ff3939"/><path d="m98.671875 0-98.671875 98.671875v86.054687c0 146.078126 90.515625 275.804688 227.222656 327.273438v-512zm0 0" fill="#ff8859"/><path d="m329.320312 63.867188h-102.097656l-20.015625 153.605468 20.015625 225.199219c45.234375-21.480469 83.789063-54.078125 112.441406-95.289063 33.308594-47.910156 50.917969-104.15625 50.917969-162.65625v-59.601562zm0 0" fill="#03232e"/><path d="m125.125 63.867188-61.257812 61.257812v59.601562c0 58.5 17.605468 114.746094 50.917968 162.65625 28.652344 41.210938 67.203125 73.808594 112.4375 95.289063v-378.804687zm0 0" fill="#07485e"/><path d="m227.222656 122.792969-10.007812 17.214843 10.007812 12.785157c9.351563 0 16.960938 7.605469 16.960938 16.960937v45.804688h30v-45.804688c0-25.894531-21.066406-46.960937-46.960938-46.960937zm0 0" fill="#b4d2d7"/><path d="m180.265625 169.753906v45.804688h30v-45.804688c0-9.355468 7.605469-16.960937 16.957031-16.960937v-30c-25.890625 0-46.957031 21.066406-46.957031 46.960937zm0 0" fill="#b4d2d7"/><path d="m291.140625 197.535156h-63.917969l-20.015625 50.027344 20.015625 50.027344h63.917969zm0 0" fill="#ff9f22"/><path d="m163.304688 197.535156h63.917968v100.054688h-63.917968zm0 0" fill="#ffda44"/></svg>